# xmcd
#
# Track frame offsets:
#	150
#	64650
#	115373
#	156778
#	237616
#
# Disc length: 4316 seconds
#
# Revision: 0
# Processed by: cddbd v1.5.2PL0 Copyright (c) Steve Scherf et al.
# Submitted via: audiograbber 1.83.01
#
DISCID=4010da05
DTITLE=Ludwig van Beethoven - Complete works of Ludwig van Beethoven (by am@do 
DTITLE=classics) - CD 06
DYEAR=2007
DGENRE=Classical
TTITLE0=Concerto for piano and orchestra no.1 Op. 15C major - Allegro con brio
TTITLE1=Concerto for piano and orchestra no.1 Op. 15C major - Largo
TTITLE2=Concerto for piano and orchestra no.1 Op. 15C major - Rondo Allegro
TTITLE3=Concerto for violine violoncello piano and orchestra Op. 56 C major (Tr
TTITLE3=ipple Concerto) - Allegro
TTITLE4=Concerto for violine violoncello piano and orchestra Op. 56 C major (Tr
TTITLE4=ipple Concerto) - Largo - Rondo alla pollaca
EXTD=
EXTT0=
EXTT1=
EXTT2=
EXTT3=
EXTT4=
PLAYORDER=
